<svg width="29" height="29" viewBox="0 0 29 29" fill="none" xmlns="http://www.w3.org/2000/svg">
<path fill-rule="evenodd" clip-rule="evenodd" d="M1.52938 3.7773C1.52938 3.19897 1.75912 2.64432 2.16806 2.23537C2.57701 1.82643 3.13166 1.59668 3.71 1.59668H25.4474C25.734 1.59621 26.0179 1.65228 26.2828 1.76167C26.5477 1.87106 26.7884 2.03163 26.9912 2.23418C27.194 2.43673 27.3548 2.67729 27.4645 2.94208C27.5742 3.20687 27.6305 3.4907 27.6304 3.7773V25.5147C27.6307 25.8014 27.5745 26.0853 27.465 26.3502C27.3554 26.6151 27.1948 26.8558 26.9921 27.0586C26.7895 27.2613 26.5488 27.4221 26.284 27.5318C26.0191 27.6415 25.7352 27.6978 25.4486 27.6977H3.71C3.42353 27.6977 3.13988 27.6412 2.87523 27.5316C2.61059 27.4219 2.37015 27.2612 2.16764 27.0586C1.96514 26.856 1.80454 26.6154 1.69502 26.3507C1.58551 26.086 1.52922 25.8023 1.52938 25.5159V3.7773ZM11.8606 11.5483H15.3949V13.3232C15.9051 12.3028 17.2101 11.3846 19.1713 11.3846C22.931 11.3846 23.822 13.4169 23.822 17.1458V24.053H20.0172V17.9952C20.0172 15.8716 19.507 14.6733 18.2115 14.6733C16.4141 14.6733 15.6666 15.9653 15.6666 17.9952V24.053H11.8606V11.5483ZM5.33538 23.8905H9.14138V11.3846H5.33538V23.8893V23.8905ZM9.68594 7.30568C9.69312 7.63156 9.63513 7.95558 9.51538 8.25874C9.39563 8.5619 9.21654 8.83809 8.98861 9.0711C8.76067 9.30411 8.48849 9.48924 8.18804 9.61563C7.88759 9.74202 7.56492 9.80713 7.23897 9.80713C6.91302 9.80713 6.59035 9.74202 6.2899 9.61563C5.98945 9.48924 5.71727 9.30411 5.48933 9.0711C5.2614 8.83809 5.08231 8.5619 4.96256 8.25874C4.84281 7.95558 4.78482 7.63156 4.792 7.30568C4.80609 6.66604 5.07008 6.05733 5.52744 5.60993C5.9848 5.16253 6.59917 4.91201 7.23897 4.91201C7.87877 4.91201 8.49314 5.16253 8.9505 5.60993C9.40786 6.05733 9.67185 6.66604 9.68594 7.30568Z" fill="#2F80ED"/>
</svg>
