<svg width="197" height="36" viewBox="0 0 197 36" fill="none" xmlns="http://www.w3.org/2000/svg">
<rect y="3" width="144" height="31" fill="#2F80ED"/>
<path d="M16.21 30C16.03 30 15.91 29.92 15.85 29.76L14.77 26.25C14.75 26.19 14.71 26.16 14.65 26.16H6.22C6.16 26.16 6.12 26.19 6.1 26.25L5.02 29.76C4.96 29.92 4.84 30 4.66 30H2.23C2.01 30 1.93 29.89 1.99 29.67L8.56 9.24C8.62 9.08 8.74 9 8.92 9H11.92C12.1 9 12.22 9.08 12.28 9.24L18.91 29.67L18.94 29.79C18.94 29.93 18.85 30 18.67 30H16.21ZM6.85 23.73C6.83 23.77 6.83 23.81 6.85 23.85C6.89 23.87 6.93 23.88 6.97 23.88H13.87C13.91 23.88 13.94 23.87 13.96 23.85C14 23.81 14.01 23.77 13.99 23.73L10.51 12.6C10.49 12.56 10.46 12.54 10.42 12.54C10.38 12.54 10.35 12.56 10.33 12.6L6.85 23.73ZM26.5239 30C26.3439 30 26.2239 29.92 26.1639 29.76L19.7439 9.33L19.7139 9.21C19.7139 9.07 19.8039 9 19.9839 9H22.4139C22.5939 9 22.7139 9.08 22.7739 9.24L27.7239 25.83C27.7439 25.87 27.7739 25.89 27.8139 25.89C27.8539 25.89 27.8839 25.87 27.9039 25.83L32.8539 9.24C32.9139 9.08 33.0239 9 33.1839 9H35.5539C35.7739 9 35.8539 9.11 35.7939 9.33L29.3139 29.76C29.2539 29.92 29.1339 30 28.9539 30H26.5239ZM51.9873 30.27C50.5473 30.27 49.2673 29.99 48.1473 29.43C47.0473 28.85 46.1873 28.04 45.5673 27C44.9673 25.94 44.6673 24.73 44.6673 23.37V15.6C44.6673 14.24 44.9673 13.05 45.5673 12.03C46.1873 10.99 47.0473 10.19 48.1473 9.63C49.2673 9.05 50.5473 8.76 51.9873 8.76C53.4273 8.76 54.6973 9.04 55.7973 9.6C56.8973 10.14 57.7473 10.91 58.3473 11.91C58.9673 12.91 59.2773 14.07 59.2773 15.39V15.42C59.2773 15.52 59.2473 15.6 59.1873 15.66C59.1273 15.72 59.0573 15.75 58.9773 15.75L56.6973 15.87C56.4973 15.87 56.3973 15.78 56.3973 15.6V15.51C56.3973 14.23 55.9973 13.2 55.1973 12.42C54.3973 11.64 53.3273 11.25 51.9873 11.25C50.6473 11.25 49.5673 11.64 48.7473 12.42C47.9473 13.2 47.5473 14.23 47.5473 15.51V23.49C47.5473 24.77 47.9473 25.8 48.7473 26.58C49.5673 27.36 50.6473 27.75 51.9873 27.75C53.3273 27.75 54.3973 27.36 55.1973 26.58C55.9973 25.8 56.3973 24.77 56.3973 23.49V23.43C56.3973 23.25 56.4973 23.16 56.6973 23.16L58.9773 23.28C59.1773 23.28 59.2773 23.38 59.2773 23.58C59.2773 24.9 58.9673 26.07 58.3473 27.09C57.7473 28.09 56.8973 28.87 55.7973 29.43C54.6973 29.99 53.4273 30.27 51.9873 30.27ZM69.3107 30.24C67.8307 30.24 66.5407 29.87 65.4407 29.13C64.3407 28.37 63.5707 27.32 63.1307 25.98C62.7707 24.9 62.5907 23.68 62.5907 22.32C62.5907 20.9 62.7607 19.7 63.1007 18.72C63.5407 17.4 64.3107 16.37 65.4107 15.63C66.5107 14.87 67.8207 14.49 69.3407 14.49C70.7807 14.49 72.0307 14.87 73.0907 15.63C74.1707 16.37 74.9407 17.39 75.4007 18.69C75.7607 19.71 75.9407 20.91 75.9407 22.29C75.9407 23.69 75.7607 24.92 75.4007 25.98C74.9607 27.32 74.2007 28.37 73.1207 29.13C72.0407 29.87 70.7707 30.24 69.3107 30.24ZM69.3107 27.75C70.1107 27.75 70.8107 27.53 71.4107 27.09C72.0107 26.63 72.4407 25.99 72.7007 25.17C72.9207 24.41 73.0307 23.47 73.0307 22.35C73.0307 21.23 72.9307 20.3 72.7307 19.56C72.4707 18.74 72.0407 18.11 71.4407 17.67C70.8407 17.21 70.1107 16.98 69.2507 16.98C68.4307 16.98 67.7207 17.21 67.1207 17.67C66.5207 18.11 66.0907 18.74 65.8307 19.56C65.6107 20.26 65.5007 21.19 65.5007 22.35C65.5007 23.51 65.6107 24.45 65.8307 25.17C66.0707 25.99 66.4907 26.63 67.0907 27.09C67.7107 27.53 68.4507 27.75 69.3107 27.75ZM95.5813 14.52C97.1013 14.52 98.3013 14.98 99.1813 15.9C100.061 16.8 100.501 18.06 100.501 19.68V29.7C100.501 29.9 100.401 30 100.201 30H97.9513C97.7513 30 97.6513 29.9 97.6513 29.7V20.28C97.6513 19.28 97.3713 18.49 96.8113 17.91C96.2713 17.31 95.5413 17.01 94.6213 17.01C93.7013 17.01 92.9513 17.3 92.3713 17.88C91.7913 18.46 91.5013 19.24 91.5013 20.22V29.7C91.5013 29.9 91.4013 30 91.2013 30H88.9513C88.7513 30 88.6513 29.9 88.6513 29.7V20.28C88.6513 19.28 88.3713 18.49 87.8113 17.91C87.2713 17.31 86.5413 17.01 85.6213 17.01C84.7013 17.01 83.9613 17.3 83.4013 17.88C82.8613 18.46 82.5913 19.24 82.5913 20.22V29.7C82.5913 29.9 82.4913 30 82.2913 30H80.0113C79.8113 30 79.7113 29.9 79.7113 29.7V15.03C79.7113 14.83 79.8113 14.73 80.0113 14.73H82.2913C82.4913 14.73 82.5913 14.83 82.5913 15.03V16.05C82.5913 16.09 82.6013 16.12 82.6213 16.14C82.6613 16.16 82.7013 16.15 82.7413 16.11C83.6213 15.05 84.9013 14.52 86.5813 14.52C87.6013 14.52 88.4713 14.72 89.1913 15.12C89.9113 15.5 90.4713 16.07 90.8713 16.83C90.9313 16.91 90.9913 16.91 91.0513 16.83C91.5313 16.05 92.1613 15.47 92.9413 15.09C93.7413 14.71 94.6213 14.52 95.5813 14.52ZM116.797 18.69C117.117 19.71 117.277 20.92 117.277 22.32C117.277 23.82 117.087 25.1 116.707 26.16C116.267 27.46 115.567 28.47 114.607 29.19C113.667 29.89 112.477 30.24 111.037 30.24C110.337 30.24 109.687 30.1 109.087 29.82C108.487 29.54 107.967 29.15 107.527 28.65C107.487 28.61 107.447 28.6 107.407 28.62C107.387 28.64 107.377 28.67 107.377 28.71V29.7C107.377 29.9 107.277 30 107.077 30H104.797C104.597 30 104.497 29.9 104.497 29.7V9.3C104.497 9.1 104.597 9 104.797 9H107.077C107.277 9 107.377 9.1 107.377 9.3V15.99C107.377 16.03 107.387 16.06 107.407 16.08C107.447 16.1 107.487 16.09 107.527 16.05C107.967 15.55 108.487 15.17 109.087 14.91C109.707 14.63 110.357 14.49 111.037 14.49C112.537 14.49 113.767 14.86 114.727 15.6C115.687 16.34 116.377 17.37 116.797 18.69ZM113.617 26.1C114.117 25.16 114.367 23.92 114.367 22.38C114.367 20.74 114.047 19.42 113.407 18.42C112.827 17.46 111.937 16.98 110.737 16.98C109.617 16.98 108.767 17.49 108.187 18.51C107.667 19.43 107.407 20.71 107.407 22.35C107.407 23.99 107.647 25.25 108.127 26.13C108.727 27.21 109.607 27.75 110.767 27.75C112.087 27.75 113.037 27.2 113.617 26.1ZM122.789 12.33C122.229 12.33 121.769 12.15 121.409 11.79C121.049 11.43 120.869 10.97 120.869 10.41C120.869 9.85 121.049 9.39 121.409 9.03C121.769 8.67 122.229 8.49 122.789 8.49C123.349 8.49 123.809 8.67 124.169 9.03C124.529 9.39 124.709 9.85 124.709 10.41C124.709 10.97 124.529 11.43 124.169 11.79C123.809 12.15 123.349 12.33 122.789 12.33ZM121.589 29.97C121.389 29.97 121.289 29.87 121.289 29.67V15.03C121.289 14.83 121.389 14.73 121.589 14.73H123.869C124.069 14.73 124.169 14.83 124.169 15.03V29.67C124.169 29.87 124.069 29.97 123.869 29.97H121.589ZM135.506 14.52C137.146 14.52 138.446 15 139.406 15.96C140.366 16.9 140.846 18.18 140.846 19.8V29.7C140.846 29.9 140.746 30 140.546 30H138.266C138.066 30 137.966 29.9 137.966 29.7V20.37C137.966 19.37 137.676 18.56 137.096 17.94C136.516 17.32 135.746 17.01 134.786 17.01C133.846 17.01 133.076 17.32 132.476 17.94C131.876 18.56 131.576 19.36 131.576 20.34V29.7C131.576 29.9 131.476 30 131.276 30H128.996C128.796 30 128.696 29.9 128.696 29.7V15.03C128.696 14.83 128.796 14.73 128.996 14.73H131.276C131.476 14.73 131.576 14.83 131.576 15.03V16.11C131.576 16.15 131.586 16.18 131.606 16.2C131.646 16.22 131.676 16.21 131.696 16.17C132.556 15.07 133.826 14.52 135.506 14.52ZM150.535 14.49C151.755 14.49 152.815 14.71 153.715 15.15C154.635 15.57 155.335 16.17 155.815 16.95C156.315 17.71 156.565 18.58 156.565 19.56V29.7C156.565 29.9 156.465 30 156.265 30H153.985C153.785 30 153.685 29.9 153.685 29.7V28.62C153.685 28.52 153.635 28.5 153.535 28.56C153.015 29.1 152.375 29.52 151.615 29.82C150.875 30.1 150.045 30.24 149.125 30.24C147.645 30.24 146.415 29.87 145.435 29.13C144.475 28.37 143.995 27.23 143.995 25.71C143.995 24.15 144.535 22.93 145.615 22.05C146.715 21.15 148.245 20.7 150.205 20.7H153.565C153.645 20.7 153.685 20.66 153.685 20.58V19.77C153.685 18.89 153.425 18.21 152.905 17.73C152.405 17.23 151.635 16.98 150.595 16.98C149.755 16.98 149.065 17.15 148.525 17.49C148.005 17.81 147.685 18.25 147.565 18.81C147.505 19.01 147.385 19.1 147.205 19.08L144.775 18.75C144.575 18.71 144.485 18.63 144.505 18.51C144.665 17.33 145.295 16.37 146.395 15.63C147.495 14.87 148.875 14.49 150.535 14.49ZM149.755 27.81C150.815 27.81 151.735 27.53 152.515 26.97C153.295 26.41 153.685 25.7 153.685 24.84V23.07C153.685 22.99 153.645 22.95 153.565 22.95H150.745C149.565 22.95 148.625 23.18 147.925 23.64C147.225 24.1 146.875 24.74 146.875 25.56C146.875 26.3 147.135 26.86 147.655 27.24C148.195 27.62 148.895 27.81 149.755 27.81ZM167.778 16.8C167.778 17 167.678 17.1 167.478 17.1H164.238C164.158 17.1 164.118 17.14 164.118 17.22V25.17C164.118 26.01 164.308 26.62 164.688 27C165.068 27.36 165.658 27.54 166.458 27.54H167.328C167.528 27.54 167.628 27.64 167.628 27.84V29.7C167.628 29.9 167.528 30 167.328 30C166.688 30.04 166.228 30.06 165.948 30.06C164.428 30.06 163.278 29.79 162.498 29.25C161.738 28.69 161.358 27.67 161.358 26.19V17.22C161.358 17.14 161.318 17.1 161.238 17.1H159.408C159.208 17.1 159.108 17 159.108 16.8V15.03C159.108 14.83 159.208 14.73 159.408 14.73H161.238C161.318 14.73 161.358 14.69 161.358 14.61V11.07C161.358 10.87 161.458 10.77 161.658 10.77H163.818C164.018 10.77 164.118 10.87 164.118 11.07V14.61C164.118 14.69 164.158 14.73 164.238 14.73H167.478C167.678 14.73 167.778 14.83 167.778 15.03V16.8ZM177.211 30.24C175.731 30.24 174.441 29.87 173.341 29.13C172.241 28.37 171.471 27.32 171.031 25.98C170.671 24.9 170.491 23.68 170.491 22.32C170.491 20.9 170.661 19.7 171.001 18.72C171.441 17.4 172.211 16.37 173.311 15.63C174.411 14.87 175.721 14.49 177.241 14.49C178.681 14.49 179.931 14.87 180.991 15.63C182.071 16.37 182.841 17.39 183.301 18.69C183.661 19.71 183.841 20.91 183.841 22.29C183.841 23.69 183.661 24.92 183.301 25.98C182.861 27.32 182.101 28.37 181.021 29.13C179.941 29.87 178.671 30.24 177.211 30.24ZM177.211 27.75C178.011 27.75 178.711 27.53 179.311 27.09C179.911 26.63 180.341 25.99 180.601 25.17C180.821 24.41 180.931 23.47 180.931 22.35C180.931 21.23 180.831 20.3 180.631 19.56C180.371 18.74 179.941 18.11 179.341 17.67C178.741 17.21 178.011 16.98 177.151 16.98C176.331 16.98 175.621 17.21 175.021 17.67C174.421 18.11 173.991 18.74 173.731 19.56C173.511 20.26 173.401 21.19 173.401 22.35C173.401 23.51 173.511 24.45 173.731 25.17C173.971 25.99 174.391 26.63 174.991 27.09C175.611 27.53 176.351 27.75 177.211 27.75ZM194.302 14.58C194.942 14.58 195.522 14.71 196.042 14.97C196.182 15.03 196.232 15.15 196.192 15.33L195.712 17.58C195.692 17.76 195.572 17.82 195.352 17.76C195.012 17.62 194.612 17.55 194.152 17.55L193.732 17.58C192.792 17.62 192.012 17.95 191.392 18.57C190.792 19.17 190.492 19.96 190.492 20.94V29.7C190.492 29.9 190.392 30 190.192 30H187.912C187.712 30 187.612 29.9 187.612 29.7V15.03C187.612 14.83 187.712 14.73 187.912 14.73H190.192C190.392 14.73 190.492 14.83 190.492 15.03V16.62C190.492 16.68 190.502 16.72 190.522 16.74C190.562 16.74 190.592 16.72 190.612 16.68C191.512 15.28 192.742 14.58 194.302 14.58Z" fill="white"/>
</svg>
